<svg xmlns="http://www.w3.org/2000/svg" xmlns:xlink="http://www.w3.org/1999/xlink" width="500" zoomAndPan="magnify" viewBox="0 0 375 374.999991" height="500" preserveAspectRatio="xMidYMid meet" version="1.0"><defs><g/></defs><g fill="#000000" fill-opacity="1"><g transform="translate(124.821558, 201.549992)"><g><path d="M 9.578125 -20.015625 C 10.273438 -20.941406 11.117188 -21.675781 12.109375 -22.21875 C 13.097656 -22.757812 14.15625 -23.03125 15.28125 -23.03125 C 17.207031 -23.03125 18.773438 -22.546875 19.984375 -21.578125 C 21.191406 -20.617188 22.082031 -19.253906 22.65625 -17.484375 C 23.226562 -15.722656 23.515625 -13.632812 23.515625 -11.21875 C 23.515625 -8.914062 23.175781 -6.863281 22.5 -5.0625 C 21.820312 -3.269531 20.816406 -1.859375 19.484375 -0.828125 C 18.160156 0.203125 16.53125 0.71875 14.59375 0.71875 C 12.257812 0.71875 10.421875 -0.191406 9.078125 -2.015625 L 8.8125 0 L 2.9375 0 L 2.9375 -31.15625 L 9.578125 -31.859375 Z M 12.859375 -4.109375 C 14.023438 -4.109375 14.953125 -4.648438 15.640625 -5.734375 C 16.328125 -6.828125 16.671875 -8.625 16.671875 -11.125 C 16.671875 -12.976562 16.523438 -14.410156 16.234375 -15.421875 C 15.953125 -16.441406 15.546875 -17.148438 15.015625 -17.546875 C 14.492188 -17.941406 13.882812 -18.140625 13.1875 -18.140625 C 12.445312 -18.140625 11.78125 -17.910156 11.1875 -17.453125 C 10.601562 -16.992188 10.066406 -16.363281 9.578125 -15.5625 L 9.578125 -6.15625 C 9.992188 -5.5 10.460938 -4.992188 10.984375 -4.640625 C 11.503906 -4.285156 12.128906 -4.109375 12.859375 -4.109375 Z M 12.859375 -4.109375 "/></g></g></g><g fill="#000000" fill-opacity="1"><g transform="translate(158.204566, 201.549992)"><g><path d="M 11.890625 -4.03125 C 12.992188 -4.03125 13.882812 -4.203125 14.5625 -4.546875 C 15.238281 -4.898438 15.578125 -5.425781 15.578125 -6.125 C 15.578125 -6.601562 15.441406 -7.003906 15.171875 -7.328125 C 14.910156 -7.648438 14.398438 -7.957031 13.640625 -8.25 C 12.890625 -8.539062 11.773438 -8.890625 10.296875 -9.296875 C 8.929688 -9.660156 7.726562 -10.125 6.6875 -10.6875 C 5.644531 -11.25 4.832031 -11.96875 4.25 -12.84375 C 3.664062 -13.726562 3.375 -14.832031 3.375 -16.15625 C 3.375 -17.476562 3.742188 -18.65625 4.484375 -19.6875 C 5.234375 -20.726562 6.328125 -21.546875 7.765625 -22.140625 C 9.210938 -22.734375 10.976562 -23.03125 13.0625 -23.03125 C 15.050781 -23.03125 16.78125 -22.773438 18.25 -22.265625 C 19.726562 -21.753906 21.007812 -21.109375 22.09375 -20.328125 L 19.453125 -16.421875 C 18.523438 -16.992188 17.53125 -17.453125 16.46875 -17.796875 C 15.40625 -18.140625 14.332031 -18.3125 13.25 -18.3125 C 12.175781 -18.3125 11.375 -18.164062 10.84375 -17.875 C 10.320312 -17.59375 10.0625 -17.164062 10.0625 -16.59375 C 10.0625 -16.207031 10.195312 -15.878906 10.46875 -15.609375 C 10.738281 -15.335938 11.25 -15.054688 12 -14.765625 C 12.757812 -14.484375 13.867188 -14.132812 15.328125 -13.71875 C 16.773438 -13.3125 18.03125 -12.84375 19.09375 -12.3125 C 20.164062 -11.78125 20.992188 -11.066406 21.578125 -10.171875 C 22.171875 -9.285156 22.46875 -8.113281 22.46875 -6.65625 C 22.46875 -5.03125 21.984375 -3.664062 21.015625 -2.5625 C 20.054688 -1.46875 18.773438 -0.644531 17.171875 -0.09375 C 15.578125 0.445312 13.828125 0.71875 11.921875 0.71875 C 9.765625 0.71875 7.859375 0.410156 6.203125 -0.203125 C 4.554688 -0.828125 3.15625 -1.640625 2 -2.640625 L 5.328125 -6.390625 C 6.203125 -5.710938 7.1875 -5.148438 8.28125 -4.703125 C 9.382812 -4.253906 10.585938 -4.03125 11.890625 -4.03125 Z M 11.890625 -4.03125 "/></g></g></g><g fill="#000000" fill-opacity="1"><g transform="translate(191.587575, 201.549992)"><g><path d="M 12.59375 -29.84375 C 16.070312 -29.84375 18.695312 -28.5 20.46875 -25.8125 C 22.238281 -23.132812 23.125 -19.398438 23.125 -14.609375 C 23.125 -9.804688 22.238281 -6.050781 20.46875 -3.34375 C 18.695312 -0.632812 16.070312 0.71875 12.59375 0.71875 C 9.09375 0.71875 6.460938 -0.632812 4.703125 -3.34375 C 2.953125 -6.050781 2.078125 -9.804688 2.078125 -14.609375 C 2.078125 -19.398438 2.953125 -23.132812 4.703125 -25.8125 C 6.460938 -28.5 9.09375 -29.84375 12.59375 -29.84375 Z M 12.59375 -25.03125 C 11.113281 -25.03125 10.03125 -24.234375 9.34375 -22.640625 C 8.65625 -21.054688 8.3125 -18.378906 8.3125 -14.609375 C 8.3125 -11.703125 8.4375 -9.492188 8.6875 -7.984375 C 8.945312 -6.472656 9.382812 -5.441406 10 -4.890625 C 10.625 -4.347656 11.488281 -4.078125 12.59375 -4.078125 C 13.59375 -4.078125 14.398438 -4.410156 15.015625 -5.078125 C 15.640625 -5.753906 16.097656 -6.863281 16.390625 -8.40625 C 16.691406 -9.957031 16.84375 -12.023438 16.84375 -14.609375 C 16.84375 -17.472656 16.710938 -19.648438 16.453125 -21.140625 C 16.203125 -22.640625 15.773438 -23.660156 15.171875 -24.203125 C 14.566406 -24.753906 13.707031 -25.03125 12.59375 -25.03125 Z M 15.890625 -24.109375 L 17.59375 -20.46875 L 9.828125 -4.4375 L 7.921875 -7.40625 Z M 15.890625 -24.109375 "/></g></g></g><g fill="#000000" fill-opacity="1"><g transform="translate(224.970584, 201.549992)"><g><path d="M 15.625 -31.859375 L 22.265625 -31.15625 L 22.265625 0 L 16.375 0 L 16.046875 -2.453125 C 15.429688 -1.585938 14.609375 -0.84375 13.578125 -0.21875 C 12.554688 0.40625 11.320312 0.71875 9.875 0.71875 C 8.019531 0.71875 6.488281 0.222656 5.28125 -0.765625 C 4.070312 -1.765625 3.171875 -3.15625 2.578125 -4.9375 C 1.984375 -6.726562 1.6875 -8.820312 1.6875 -11.21875 C 1.6875 -13.507812 2.039062 -15.539062 2.75 -17.3125 C 3.46875 -19.09375 4.488281 -20.488281 5.8125 -21.5 C 7.144531 -22.519531 8.726562 -23.03125 10.5625 -23.03125 C 11.550781 -23.03125 12.472656 -22.851562 13.328125 -22.5 C 14.179688 -22.15625 14.945312 -21.648438 15.625 -20.984375 Z M 12.34375 -18.1875 C 11.195312 -18.1875 10.273438 -17.644531 9.578125 -16.5625 C 8.878906 -15.476562 8.53125 -13.679688 8.53125 -11.171875 C 8.53125 -9.335938 8.675781 -7.910156 8.96875 -6.890625 C 9.257812 -5.878906 9.664062 -5.171875 10.1875 -4.765625 C 10.707031 -4.359375 11.300781 -4.15625 11.96875 -4.15625 C 12.707031 -4.15625 13.378906 -4.382812 13.984375 -4.84375 C 14.597656 -5.3125 15.144531 -5.941406 15.625 -6.734375 L 15.625 -16.359375 C 15.164062 -16.929688 14.675781 -17.378906 14.15625 -17.703125 C 13.632812 -18.023438 13.03125 -18.1875 12.34375 -18.1875 Z M 12.34375 -18.1875 "/></g></g></g></svg>